<svg xmlns="http://www.w3.org/2000/svg" viewBox="0 0 64 64" role="img" aria-label="controle financeiro">
  <rect width="64" height="64" rx="14" fill="#0f172a"/>
  <path fill="#10b981" d="M17 39.5c0-2.5 2-4.5 4.5-4.5h21c2.5 0 4.5 2 4.5 4.5S45 44 42.5 44h-21A4.5 4.5 0 0 1 17 39.5Z"/>
  <path fill="#e2e8f0" d="M20 22.5A6.5 6.5 0 0 1 26.5 16h11A6.5 6.5 0 0 1 44 22.5V35H20V22.5Zm6.5-2.5a2.5 2.5 0 0 0-2.5 2.5V31h16v-8.5a2.5 2.5 0 0 0-2.5-2.5h-11Z"/>
  <path fill="#0f172a" d="M30 27h4v4h-4v-4Zm-8 12.5c0-.8.7-1.5 1.5-1.5h17c.8 0 1.5.7 1.5 1.5s-.7 1.5-1.5 1.5h-17c-.8 0-1.5-.7-1.5-1.5Z"/>
  <path fill="#f8fafc" d="M33.5 15v3.2c2.6.4 4.5 1.8 5.8 3.8l-3.2 1.7c-.7-1.1-1.8-1.8-3.2-1.8-1.5 0-2.5.6-2.5 1.6 0 1.1 1.1 1.5 3.5 2.1 3.4.8 5.8 2 5.8 5.3 0 2.9-2.2 4.9-5.7 5.4V40h-3v-3.7c-3-.5-5.2-2.2-6.4-4.8l3.4-1.5c.8 1.8 2.3 2.7 4.2 2.7 1.8 0 2.8-.6 2.8-1.7 0-1-1-1.5-3.7-2.2-3-.7-5.5-1.9-5.5-5.1 0-2.7 2-4.8 5.2-5.4V15h2.5Z"/>
</svg>
